<?xml version="1.0" encoding="UTF-8"?>
<!DOCTYPE svg PUBLIC "-//W3C//DTD SVG 1.1//EN" "http://www.w3.org/Graphics/SVG/1.1/DTD/svg11.dtd">
<!-- Creator: CorelDRAW -->
<svg xmlns="http://www.w3.org/2000/svg" xml:space="preserve" width="50.7998mm" height="25.3998mm" version="1.1" style="shape-rendering:geometricPrecision; text-rendering:geometricPrecision; image-rendering:optimizeQuality; fill-rule:evenodd; clip-rule:evenodd"
viewBox="0 0 5079.98 2539.98"
 xmlns:xlink="http://www.w3.org/1999/xlink"
 xmlns:xodm="http://www.corel.com/coreldraw/odm/2003">
 <defs>
  <style type="text/css">
   <![CDATA[
    .fil1 {fill:#CB5500}
    .fil0 {fill:#FAF2DE}
   ]]>
  </style>
 </defs>
 <g id="Layer_x0020_1">
  <metadata id="CorelCorpID_0Corel-Layer"/>
  <path class="fil0" d="M2565.51 1572.79c-4.37,-5.41 -1.08,1.85 -3.08,-6.64 -0.87,-3.76 -0.97,-7.34 -1.04,-11.27 -0.15,-7.78 0.28,-16.45 0.3,-24.4 -0.77,-36.48 -5.09,-137.18 5.22,-167.05 8.01,-23.26 37.98,-22.7 61.21,-17.11 82,19.72 62.01,146.26 48.32,181.06 -24.36,61.89 -97.5,56.71 -110.93,45.41zm-418.52 -1320.64c-8.78,8.7 -15.26,13.33 -24.8,22.8 -22.98,22.82 -56.82,54.81 -69.42,87.38l110.01 -0.77 0 -118.47c-11.15,2.97 -6.19,3.45 -15.79,9.06zm52.04 0l1.34 107.62 104.43 1.52 9.71 -0.35c-7.54,-18.05 -38.12,-57.34 -50.6,-67.89 -11.74,-9.91 -15.65,-17.82 -29.43,-28.02 -11.7,-8.64 -21.11,-19.34 -35.44,-24.21l-0.01 11.33zm-147.07 525.81c11.57,24.9 31.75,47.15 47.53,66.35 8.16,9.91 48.5,47.14 63.29,52.45l0 -127.87 -6.05 -0.01c-24.52,1.65 -92.42,-4.37 -108.28,3.05 1.53,3.46 -1.14,1.07 3.51,6.03zm147.28 0l0.14 121.49c16.87,-8.19 52.73,-40.04 63.27,-51.78 7.94,-8.84 18.2,-21.2 25.9,-31.62 4.17,-5.66 7.31,-9.24 11.69,-15.41l13.63 -17.74c1.8,-5.51 1.71,-4.12 2.29,-5.61 1.98,-5.07 0.68,-0.84 1.98,-5.36 -7.11,-3.77 -110.87,-3.48 -117.74,0l-1.16 6.03zm-222.48 -510.7c-13.14,14.33 -70.89,55.37 -89.31,94.18 161.76,-0.15 88.9,18.87 169.33,-79.22 19.03,-23.19 45.57,-53.22 72.76,-66.31 5.04,-4.4 5.37,-1.18 6.92,-7.19 2.44,-9.55 -3.76,-3.04 -4.98,-3.06 -32.28,-0.58 -148.3,46.81 -154.72,61.6zm-92 509.78c8.97,5.39 19.91,26.58 44.37,50.22 61.5,59.45 90.16,74.17 185.3,101.82l6.04 3.01 15.62 0c-3.65,-5.8 -26.26,-22.62 -33.22,-27.74 -13.21,-9.71 -18.87,-19.15 -32.26,-31.11 -10.6,-9.48 -47.31,-56.91 -52.86,-74.12l-18.17 -30.23 -21.14 -0.58c-17.89,1.12 -86.21,-3.09 -95.23,3.62l1.55 5.11zm350.55 -561.13c33.47,16.01 79.27,68.58 100.6,101.78 8.64,13.44 17,32.62 26.31,43.7 32.17,2.83 88.94,-3.61 114.83,2.59l9.06 -0.01c-7.94,-29.8 -72.07,-85.21 -103.29,-105.21 -39.17,-25.11 -109.62,-53.91 -156.59,-54.96 1.47,5.5 0.64,3.06 2.92,6.15l4.44 4.64c0.31,0.3 1.18,0.84 1.72,1.32zm126.91 555.37l-2.29 6.68c-14.44,43.81 -61.73,90.78 -91.58,120.74 -15.26,15.31 -32.85,24.85 -40.15,34.56 57.48,-6.05 107.3,-26.02 149.58,-52.06 70.35,-43.33 69.22,-62.6 105.32,-97.85 2.5,-4.12 3.77,-7.17 5.92,-11.42 -11.25,-5.22 -111.45,-4.15 -126.8,-0.65zm-540.91 -183.67l1.2 6.02c11.29,51.37 12.67,95.32 38.73,137.97l117.2 1.05 6.06 -3.03 0 -3.03c-9.7,-11.12 -17.81,-54.31 -20.43,-67.22 -6.64,-32.74 -4.91,-29.94 -6.83,-56.62 -1.23,-16.93 -4.53,-16.08 -6,-18.2 -39.9,7.12 -87.35,-0.7 -129.93,3.06zm37.07 -181.34c-4.55,20.08 -16.54,42.44 -22.67,65.71 -5.98,22.7 -12.12,52.38 -12.54,76.35l131.36 -0.07c5.18,-56.36 14.6,-84.15 26.19,-132.92 4.58,-6.8 4.79,-6.53 6.79,-15.19l-123.91 -0.62 -5.22 6.74zm551.64 184.34l-0.82 3.02c3.05,55.63 -22.7,111.78 -25.74,138.22l128.49 -0.22c31,-57.99 27.32,-98.94 37.63,-120.56 0,-13.36 1.54,-16.98 -3.02,-26.52 -19.14,5.67 -48.1,2.37 -69.51,2.37 -13.39,0 -50.58,-1.66 -62.45,1.55l-4.58 2.14zm-31.57 -187.36l2.36 3.02c15.46,42.56 27.17,92.42 29.35,143.01l139.42 0.51c0,-55.13 -20.35,-119.81 -42.31,-152.59l-24.17 -0.01c-21.47,5.54 -91.26,-5.52 -104.65,6.06zm-381.19 193.4c1.53,33.12 15.18,113.55 32.54,134.73l132.98 -0.11 0.39 -128.93c-0.59,-14.83 2.68,-12.01 -6.44,-15.25 -46.59,2.47 -104.01,-1.41 -145.27,0.35l-14.94 3.17 0.74 6.04zm202.07 0l0.07 134.73 137.12 0.26c8.59,-18.5 14.25,-36.97 19.27,-56.74 3.96,-15.65 8.62,-55.64 12.48,-65.34 0,-1.63 0.27,-11.89 0.06,-12.92 -2.68,-13.4 4.67,-6.01 -6.11,-9.24l-163.18 0.21 0.29 9.04zm-171.83 -187.36c-5.78,21.84 -14.3,40.76 -20.02,65.12 -6.16,26.14 -8.48,47.83 -11,74.73l166.3 -0.48 0 -148.44 -6.05 -0.01 -126.93 0 -2.3 9.08zm171.54 -9.16l0.55 6.14 0.82 140.64 167.86 1.4 1.55 -7.9c0,0 -0.97,-8.9 -1.1,-10.34l-9.52 -66.38c-3.09,-3.34 -3.02,5.29 -3.02,-9.06 -3.09,-3.33 -3.05,5.28 -3.01,-9.08l0 -3.02 -3.02 -6.04 0 -3.02 -3.02 -3.03 0 -6.03c-2.12,-2.44 -1.49,-1.28 -3.68,-5.39 -2.52,-4.7 -1.42,-3.31 -3.7,-8.4 -3.71,-8.22 -3.63,-7.27 -7.75,-13.42l-21.16 0.3c-20.68,5.91 -83.39,0.78 -111.8,2.63zm-1102.99 -106.73c14.33,27.04 -0.6,31.07 48.24,49.5 30.03,11.32 36.5,22.9 54.2,45.5 29.42,37.55 58.09,75.75 86.47,113.04 16.81,22.09 28.6,29.2 31.54,68.03 2.38,31.24 5.7,168.57 -9.14,190.11 -7.4,10.76 -18.65,14.48 -29.88,21.52 -14.29,8.94 -15.46,13.52 -27.32,23.55 -1.63,7.54 -2.85,9.19 -2.88,18.65 2.91,59.7 79.46,68.12 137.26,71.48 64.98,3.77 134.64,1.87 191.99,-18.54 25.11,-13.11 41.63,-39.24 35.25,-66.89 -13.59,-58.84 -69.32,10.6 -68.52,-146.2l2.2 -105.79c4.72,-52.71 43.36,-92.14 78.32,-134.05 36.55,-43.78 63.42,-91.86 112.91,-97.44 45.52,-13.4 47.44,-47.55 32.12,-69.58 -31.26,-44.95 -194.59,-39.97 -240.77,-7.3 -13.31,9.41 -19.03,19.06 -17.48,42.45 11.77,47.78 46.88,32.87 3.34,94.55 -8.63,12.24 -21.53,31.07 -39.18,16.52 -9.35,-7.72 -23.01,-24.72 -28.12,-38.54 -3.71,-4.27 -4.28,-4.43 -6.8,-11.55 -7.45,-21.08 3.97,-26.24 11.59,-38.04 11.06,-17.1 10.62,-44.43 -2.36,-58.63 -25.24,-27.62 -81.75,-30.95 -120.29,-30.81 -52.42,0.2 -165.7,-4.23 -205.5,18.15 -17.47,9.84 -26.73,23.58 -27.19,50.31zm2598.83 -26.97c8.56,11.02 7.44,15.86 19.02,24.12 29.92,21.39 44.71,3.83 52.73,74.38 6.05,53.35 5.25,111.07 5.14,165.24 -0.06,44.1 1.27,193.92 -27.25,227.93 -8.78,10.47 -10.76,11.14 -23.66,18.67 -16.18,9.44 -15.64,9.09 -25.98,20.12 -3.41,5.82 -1.86,2.29 -4.42,11.29 -1.42,65.56 33.03,57.69 119.26,57.69 130.82,0 304.07,-7.73 428.02,12.76 41.31,6.83 39.26,-12.35 58.5,-27.49 34.51,-45.96 88.08,-210.76 3.08,-215.42 -41.75,-2.31 -43.12,17.09 -65.78,49.32 -9.96,14.17 -9,7.31 -23.24,16.05 -20.47,12.56 -17.56,29.39 -38.22,37.34 -18.4,7.08 -41.09,12.38 -66.22,12.33 -22.48,6.64 -62.62,2.97 -84.61,-2.66 -19.62,-5.66 -22.75,-7.09 -27.13,-27.62 -3.83,-17.92 -1.7,-31.29 -3.97,-51.31 -2.97,-15.54 -3.02,-63.26 4.51,-77.72 10.25,-19.66 55.77,-15.88 66.8,-1.8 29.21,37.31 -11.03,117.41 80.67,77.47 36.89,-32.32 39.29,-111.15 39.29,-180.47 -9.37,-15.07 -3.57,-60.9 -28.38,-91.34 -7.71,-9.46 -24.79,-18.05 -43.86,-15.88 -20.44,2.34 -22.41,17.48 -33.54,29.5 0,15.34 -2.71,13.93 -3.02,27.56 -29.15,0 -50.68,10.34 -57.41,39.29 -20.29,0 -24.76,-2.95 -27.27,-21.08 -2.12,-15.21 -3.65,-30 -2.45,-48.43 0.7,-47.9 -1.22,-80.06 31.06,-86.45 30.33,-6 81.12,-5.25 111.82,0.53 100.9,19.06 65.28,101.36 152.76,81.47 10.1,-9.41 9.6,-4.17 18.88,-19 7.63,-12.19 6.16,-17.15 11.35,-27.92l1.18 -48.34c-3.09,-20.34 -2.03,-24.88 -7.54,-42.01 -22.58,-70.24 -65.31,-71.84 -128.35,-62.49l-146.32 7.81c-48.24,-0.26 -254.27,-9.11 -290.89,-0.8 -37.26,8.47 -44.56,26.34 -44.56,57.36zm1024.43 495.5c-25.39,3.03 -37.74,-4.35 -41.64,-23.92 -4.15,-20.84 -3.69,-43.16 -3.69,-67.76 -5.66,-12.43 -4.03,-73.42 3.15,-82.47 10.49,-10.56 96.91,-18.22 106.29,60.15 7.05,58.96 -9.68,108.58 -64.11,114zm-27.2 -280.84c-9.8,0.17 -8.25,-1.47 -18.13,-2.3 -4.8,-20.58 -2.83,-47.35 -3.11,-72.52 -0.11,-20.45 -5.64,-77.4 3.11,-91.24 0.12,-0.09 79.41,-25.2 83.18,73.08 2.1,55.18 -9.62,92.36 -65.05,92.98zm-320.32 -212.9c9.08,11.6 5.3,17.53 18.54,25.86 36.29,22.83 52.84,-0.59 54.81,82.01 1.81,76.23 3.46,286.18 -10.01,353.24 -13.13,65.35 -51.82,38.53 -61.07,75.11 -19.78,78.15 109.73,61.46 160.91,61.46 72.88,0 298.74,5.66 355.09,-7.94 24.35,-5.87 46,-14.9 64.15,-26.43 25.73,-16.32 39.33,-37.39 49.16,-45.63 88.31,-129.02 17.42,-269.01 -63.45,-270.82l14.7 -48.73c4.48,-18.22 14.54,-19.42 24.25,-42.24 25.4,-59.64 13.4,-147.02 -50.8,-184.27 -74.15,-43.02 -199.68,-32.49 -293.41,-33.02 -24.23,-0.13 -37.64,3.56 -63.54,3.18 -41.82,-0.61 -145.44,-13.31 -180.06,10.07 -15.92,10.75 -19.27,22.93 -19.27,48.15zm-1676.1 5.12c4.02,55.2 30.51,39.74 57.74,68.12 25.92,26.98 92.5,220 108.87,262.8 22.99,60.1 44.94,119.87 67.62,180.21 16.2,43.11 38.25,100.95 90.91,96.28 13.6,-1.2 21.6,-6.5 31.38,-14.06l11.09 -8.55c3.61,-2.71 -0.42,2.63 5.02,-5.7 12.65,-19.4 23.81,-53.01 31.69,-74.01 5.32,-14.2 10.29,-28.03 15.81,-44.62 2.83,-8.51 5.07,-15.77 7.52,-22.7l9.48 -20.75c0.9,-15.7 12.76,-45.01 18.19,-60.35 6.23,-17.59 12.55,-45.19 24.03,-53.6 15.93,3.29 16.63,18.45 25.18,43.52l53.58 157.98c14.87,46.53 40.07,122.34 103.45,103.51 16.53,-4.92 26.29,-15.49 36.55,-27.05 2.97,-3.35 2.1,-2.72 4.94,-5.17 15.81,-22.14 34.57,-75.95 44.97,-104.79 13.3,-36.93 28.02,-71.54 41.52,-109.57l83.23 -219.47c6.2,-24.85 25.59,-70.67 40.23,-86.15 23.72,-25.06 57.21,-13.91 65.42,-58.9 7.64,-18.72 -4.83,-50.37 -30.85,-60.18 -34.76,-13.12 -137.1,-13.59 -173.88,0.88 -23.95,9.44 -40.83,26.41 -43.44,55.82 6.75,12.6 7,21.61 18.38,30.42 9.55,7.39 20.79,8.78 26.38,19.03 11.44,20.98 -27.76,106.62 -38.78,135.29 -8.91,23.2 -15.31,52.34 -33.41,56.66 -8.06,-5.87 -12.47,-13.21 -15.09,-26.38 -6.14,-7.5 -22.35,-53.37 -27.42,-66.06l-25.46 -68.21c-10.44,-45.16 1.82,-34.09 21.66,-63.38 18.22,-26.86 4.23,-50.89 -15.09,-64.08 -38.93,-26.58 -198.59,-25.66 -248.52,-6.12 -23.83,9.33 -39.66,24.82 -40.39,55.84 6.45,10.75 4.05,20.08 14.95,30.8 10.41,10.25 11.4,7.4 20.93,21.46 11.39,16.79 17.61,41.63 24.91,62.75 10.95,31.7 3.67,39.37 -7.39,68.79 -4.21,11.19 -7.54,20.33 -11.31,31.01 -14.78,41.89 -32.58,23.43 -42.07,-14.9l-3.03 -3.02 0 -6.04 -3.03 -3.03 0 -6.04 -3.01 -3.03 0 -6.04 -3.03 -3.01 0 -3.03 -3.02 -6.05 0 -3.02 -3.02 -6.04 0 -3.02 -3.02 -3.02 0 -3.02 -3.03 -6.05c-7.84,-18.89 -18.05,-43.87 -24.41,-66.26 -10.55,-37.09 10.43,-29.82 20.36,-60.66 2.15,-13.79 5.79,-29.01 -5.79,-44.56 -37.11,-49.83 -209.53,-36.39 -255.79,-21.61 -30.86,9.87 -53.15,25.99 -62.71,60.13zm-2468.99 21.15c12.2,56.99 55.34,29.85 69.55,98.3 8.53,41.13 -1.25,275.56 -6.37,328.23 -7.18,73.87 -12.59,63.07 -45.38,81.67 -15.34,8.7 -10.7,8.83 -21.78,19.88 -2.6,6.18 -2.82,6.62 -3.05,15.86 0.72,48.27 39.35,52.48 85.46,56.19 47.85,3.85 89.25,0.46 135.16,-6.47 7.06,-2.35 9.08,-2.43 16.04,-6.32 8.86,-4.92 6.84,-5.58 15.25,-10.15 18.32,-52.18 0.41,-58.03 -34.31,-78.02 -15.11,-11.93 -18.13,-19.99 -18.13,-45.89 -3.48,-2.11 -4,3.18 -1.95,-6.03 -1.27,-20.06 -3.39,-118.14 4.49,-139.52 4.71,-12.8 1.62,-7.49 9.64,-12.33 27.53,-9.71 40.65,51.33 49.96,74.59 21.43,53.61 52.13,134.03 82.51,180.35 38.66,58.95 51.25,28.29 72.92,4.78 0.43,-0.49 0.96,-2.07 1.1,-1.65l35.6 -78.59c10.61,-26.61 25.74,-56.09 34.94,-82.03 6,-20.01 32.81,-106.07 64.21,-87.69 10.81,6.31 11.52,27.35 11.7,42.23 1.94,166.47 -21.14,126.94 -49.37,161.72 -20.39,25.12 -6.92,57.48 13.94,70.85 54.95,35.22 228.84,20.43 286.77,8.58 49.53,-19.05 43.56,-69.68 18.98,-90.78 -18.34,-15.73 -28.3,-7.7 -34.88,-37.65 -4.05,-18.49 -4.76,-45.44 -7.45,-65.06l1.72 -283.24c2.67,-27 5.91,-55.32 23.04,-71.21 18.36,-17.05 27.5,-12.81 34.32,-34.56 8.89,-27.96 -9.2,-51.08 -29.56,-60.56 -24.17,-11.24 -56.18,-10.13 -85.55,-14.15 -12.02,-1.64 -35,-1.69 -47.38,-0.68 -63.82,5.28 -82.98,-1.99 -119.24,53.01 -28.35,42.97 -24.46,-5.33 -78.38,93.87l-49.34 95.71c-6.2,13.4 -9.72,23.21 -16.1,35.28 -21.17,-11.21 -25.87,-30.81 -39.87,-53.82 -28.92,-47.52 -66.43,-132.9 -102.97,-184.13 -17.5,-24.54 -24.16,-29.02 -59.76,-33.9 -50.18,-6.87 -226.35,-15.91 -216.48,63.33zm2961.42 958.02c-29.88,52.18 -80.85,115.45 -69.91,198.98 4.86,37.1 28.37,66.65 61.56,74.11 20.53,4.62 39.63,0.81 55.64,-7.26 17.89,-8.99 45.25,-33.85 55.53,-47.26l41.51 -58.24c19.53,-28.28 57.55,-52.72 71.82,3.36 12.67,49.71 6.01,202.91 4.45,262.39 -8.95,339.81 -65.4,227.21 -115.24,290.61 -27.46,34.95 0.8,76.85 24.43,92.42 77.23,50.9 314.99,49.74 417.44,22.99 21.79,-5.69 32.36,-12.95 50.19,-19.37 33.91,-28.21 46.16,-71.55 20.54,-98.95 -28.13,-30.1 -63.72,-21.3 -82.36,-65.7 -12.51,-29.77 -17.22,-90.14 -13.57,-134.21 3.76,-45.32 0.25,-97.08 3.38,-145.2 -0.19,-56.35 2.42,-112.71 2.5,-169.24 0.04,-24.16 -0.16,-56.12 16.44,-68.19 24.13,-17.53 45.76,12.98 53.08,25.85 22.9,40.18 38.32,77.08 72.23,100.09 28.59,19.39 67.8,24.48 99.96,8.73 14.31,-7 17.38,-13.44 27.25,-18.96 69.51,-85.24 -11.33,-292.81 -103.92,-312.26 -35,-7.36 -79.76,10.91 -143.88,10.9l-392.09 -0.75c-39.56,-5.09 -74.24,-30.16 -120.93,13.54 -8.73,8.17 -32.12,33.3 -36.05,41.62zm-2545.27 362.62c-8.43,-11.8 -9.24,-63.66 -8.5,-72.52 -1.43,-33.11 -2.92,-154.42 7.41,-179.23 13.49,-32.39 82.03,-19.15 109,40.95 18.1,40.31 21.68,115.44 4.4,156.97 -24.25,58.31 -98.14,74.94 -112.31,53.83zm-420.07 -347.52c2.51,69.6 71.11,45.88 97.28,93.05 18.81,33.87 12.96,134.92 12.96,178.92 0,92.06 7.4,291.28 -14.42,370.97 -11.81,43.18 -94.05,37.55 -80.83,109.3 17.46,94.69 223.98,86.09 299.28,84.44 31.12,-0.68 58.1,-3.41 87.88,-8.58 13.54,-2.34 26.95,-4.81 39.32,-8.73 13.6,-4.3 22.56,-10.55 32.9,-14.54 11.04,-9.77 18.52,-12.74 27.31,-31.1 14.67,-30.62 10.42,-61.45 -22.15,-80.83l-30.16 -18.24c-5.18,-3.65 -1.72,-0.79 -5.22,-4.02 -30.74,-17.66 -24.01,-121.37 -23.06,-162.1 38.52,-4.13 86.25,8.98 170.5,-4.7 45.57,-7.4 98.89,-25.91 134.68,-46.46 79.62,-45.75 118.85,-114.94 131.91,-233.76 -0.23,-111.45 -24.56,-203.16 -128.94,-254.85 -54.43,-26.95 -126.13,-44.73 -191.36,-44.36 -50.49,0.3 -103.82,-1.91 -149.4,4.81 -35.64,5.25 -185.52,10.88 -220.59,5.57 -52.64,-7.96 -168.48,-4.54 -167.89,65.21zm1430.78 640.64c-61.16,-11.54 -105.38,-92.24 -128.49,-144.96 -21.71,-49.51 -57.33,-146.65 -57.33,-215.59 -12.28,-33.35 2.27,-182.49 110.41,-166.98 69.24,9.96 111.66,87.41 140.01,147.19 37,78.04 89.37,281.45 33.3,349.84 -26.73,32.58 -75.11,47.61 -97.9,30.5zm-384.38 -592.29c-9.53,16.97 -70.68,62.67 -108.82,164.05 -81.59,216.76 14.97,456.43 195.73,564.11 219.99,131.04 524.18,88.06 675.8,-130.82 29.36,-42.38 40.41,-78.02 49.29,-90.59l1.75 -3.77c0.15,-0.42 0.58,-1.48 0.77,-2.04 0.2,-0.57 0.49,-1.53 0.7,-2.18 0.97,-3.18 1.73,-6.64 2.5,-9.47 16.58,-60.29 28.84,-121.37 21.92,-184.52 -3.08,-28.22 2.35,-24.07 -7.72,-73.87l-22.94 -85.85 -3 -3.02 -24.19 -51.37 -13.29 -19.96c-5.5,-8.3 -8.97,-13.75 -14.74,-21.52l-33.14 -39.38c-77.75,-76.87 -174.09,-130.35 -286.43,-139.66 -96.25,-7.98 -180.04,-1.95 -254.94,22.92 -70.41,23.37 -116.98,52.54 -170.79,98.21 -9.29,7.89 -2.57,-2.29 -8.46,8.73zm3303.54 592.29c-61.16,-11.54 -105.37,-92.24 -128.48,-144.96 -21.72,-49.51 -57.35,-146.65 -57.35,-215.59 -12.27,-33.35 2.3,-182.49 110.42,-166.98 69.26,9.96 111.66,87.41 140,147.19 29.92,63.08 54.2,150.22 56.89,229.36 1.36,39.8 -2.28,94.51 -23.58,120.48 -10.1,12.31 -24.41,24.92 -41.33,31.21 -15.04,5.58 -43.35,9.22 -56.57,-0.71zm-384.37 -592.29c-7.45,13.24 -21.3,21.47 -31.84,35.55 -10.25,13.68 -19.64,24.03 -30.22,39.26 -17.5,25.2 -34.53,56.72 -46.76,89.24 -81.6,216.8 15,456.45 195.72,564.11 236.26,140.72 564.05,79.81 702.25,-173.76 8.37,-15.36 13.49,-34.42 22.85,-47.65l5.72 -17.46c13.9,-50.59 24.71,-104.44 24.71,-156.88 0,-82.23 -21.78,-175.33 -63.5,-244.95 -18.42,-30.76 -21.64,-33.49 -42.9,-59.84 -29.98,-37.13 -69.43,-69.24 -111.2,-94.28 -165.97,-99.45 -448.99,-90.05 -596.29,41.7 -9.37,8.39 -23.27,15.09 -28.54,24.96zm-2019.53 -41.24c15.49,35.81 -0.81,30.27 56.41,63.42 18.56,10.75 22.97,8.09 29.71,30.76 21.52,72.35 11.41,449.85 -2.27,529.48 -8.99,52.4 -13.65,48.26 -51.1,69.85 -13.3,7.66 -23.27,15.12 -28.46,31.97 -30.85,99.96 139.49,102.5 201.2,104.08 65.2,1.65 168.76,1.76 226.58,-17.81 29.99,-10.16 51.79,-32.77 47.43,-71.85 -4.08,-36.67 -34.17,-47.03 -59.19,-64.29 -23.33,-16.1 -20.82,-66.24 -21.13,-99.49 -0.38,-41.57 -0.03,-83.32 -0.03,-124.91 86.65,-25.58 110.82,41.06 127.32,109.05 36.37,149.83 53.87,259.18 220.89,274.28 37.14,3.36 81.8,2.08 118.44,-3.45 63.39,-9.55 66.74,-23.9 92.15,-32.21 14,-17.05 25.04,-20.02 33.1,-44.65 20.34,-62.16 -55.99,-71.63 -69.88,-80.9 -36.59,-24.45 -9.43,-203.93 -126.41,-272.79 -18.81,-6.69 -70,-23.75 -80.9,-35.36 5.57,-45.39 134.8,-37.22 138.34,-212.12 -0.28,-134.94 -92.26,-195.48 -211.74,-220.43 -81.71,-17.05 -325.64,-6.22 -422.88,-6.22 -67.97,0 -211.47,-10.75 -217.58,73.59z"/>
  <path class="fil1" d="M2050.97 1406.59l24.19 51.37 3 3.02 60.44 39.28c0,20.31 2.93,27.6 3.15,45.22 0.2,16.11 -0.44,32.49 -0.25,48.58 0.23,17.75 3.3,24.83 3.19,45.18l-0.04 148.12c0.02,34.5 -5.67,201.63 -15.47,229.29 -7.65,21.59 -61.64,28.41 -74.5,76.61 -7.5,28.15 -7.68,59.09 1.9,84.35 8.52,22.47 27.67,36.39 46.53,50.15 73.86,53.81 350.82,41.62 436.85,18.36 53.83,-14.55 85.17,-55.61 85.17,-114.28l9.08 15.1c20.38,39.57 52.86,76.53 94.9,95.48 80.15,36.11 193.1,35.65 279.05,15.61 33.43,-7.8 48.69,-16.47 74.56,-34.25 43.44,-29.86 72.56,-87.2 44.05,-150.21 -25.41,8.31 -28.76,22.66 -92.15,32.21 -36.64,5.53 -81.3,6.81 -118.44,3.45 -167.02,-15.1 -184.52,-124.45 -220.89,-274.28 -16.5,-67.99 -40.67,-134.63 -127.32,-109.05 0,41.59 -0.35,83.34 0.03,124.91 0.31,33.25 -2.2,83.39 21.13,99.49 25.02,17.26 55.11,27.62 59.19,64.29 4.36,39.08 -17.44,61.69 -47.43,71.85 -57.82,19.57 -161.38,19.46 -226.58,17.81 -61.71,-1.58 -232.05,-4.12 -201.2,-104.08 5.19,-16.85 15.16,-24.31 28.46,-31.97 37.45,-21.59 42.11,-17.45 51.1,-69.85 13.68,-79.63 23.79,-457.13 2.27,-529.48 -6.74,-22.67 -11.15,-20.01 -29.71,-30.76 -57.22,-33.15 -40.92,-27.61 -56.41,-63.42 -29.68,-4.06 -74.04,21.68 -89.82,36.03 -9.16,8.34 -20.77,27.09 -24.44,39.01 -8.16,26.45 -5.82,30.51 -3.59,56.86zm-21.17 -1006.38l126.93 0c8.19,-15.41 6.05,-16.29 6.05,-38.65l-110.01 0.77c12.6,-32.57 46.44,-64.56 69.42,-87.38 9.54,-9.47 16.02,-14.1 24.8,-22.8 -26.93,7.03 -59.71,43.79 -78.69,62.66 -14.28,14.2 -27.03,32.85 -37.58,50.08 -5.25,8.58 -17.74,23.04 -0.92,35.32zm-583.2 -36.24c5.11,13.82 18.77,30.82 28.12,38.54 17.65,14.55 30.55,-4.28 39.18,-16.52 43.54,-61.68 8.43,-46.77 -3.34,-94.55 -16.32,3.51 -33.82,12.41 -45.08,21.92 -13.7,11.56 -18.92,26.08 -18.88,50.61zm571.15 435.15c5.55,17.21 42.26,64.64 52.86,74.12 13.39,11.96 19.05,21.4 32.26,31.11 6.96,5.12 29.57,21.94 33.22,27.74 8.23,8.14 18.62,9.4 24.35,0.85 5.08,-7.58 2.34,-25.57 2.34,-36.18 -14.79,-5.31 -55.13,-42.54 -63.29,-52.45 -15.78,-19.2 -35.96,-41.45 -47.53,-66.35 -22.09,0 -33.77,-1.05 -34.21,21.16zm296.12 -16.22l-13.63 17.74c-4.38,6.17 -7.52,9.75 -11.69,15.41 -7.7,10.42 -17.96,22.78 -25.9,31.62 -10.54,11.74 -46.4,43.59 -63.27,51.78l-0.14 -121.49c-19.65,0 -18.9,1.36 -30.42,9.07 0,38.26 0.3,76.62 -0.03,114.86 -0.18,21.71 -3.02,39.2 17.62,37.63 13.57,-1.05 55.71,-39.99 66.28,-50.49 22.8,-22.67 34.67,-39.85 52.12,-65.72 9.65,-14.31 19.63,-21.52 9.06,-40.41zm-114.83 -382.77c28.41,-1.85 91.12,3.28 111.8,-2.63 7.86,-17.28 3.38,-19.62 -6.04,-36.21l-104.43 -1.52 -1.34 -107.62c-8.89,-2.08 -9.21,-3.01 -21.15,-3.01 -8.15,12.18 -9.32,12.13 -9.19,33.1l0 84.88c-0.13,20.96 1.04,20.92 9.19,33.1l21.16 -0.09zm-653.58 157.23l72.44 -88.57c5.59,-6.64 5.77,-8.35 12.21,-14.98 5.38,-5.53 8.64,-7.99 13.3,-13.9 27.33,-34.53 41.83,-17.23 72.89,-35.91 25.63,-15.4 32.18,-44.95 20.39,-78.13 -49.49,5.58 -76.36,53.66 -112.91,97.44 -34.96,41.91 -73.6,81.34 -78.32,134.05zm275.85 30.25c42.58,-3.76 90.03,4.06 129.93,-3.06 2.33,-9.94 4.35,-8.48 5.69,-18.47 3.92,-29.35 0.87,-28.86 9.63,-71.96 10.6,-52.09 30.18,-64.13 14.16,-78.78 -11.59,48.77 -21.01,76.56 -26.19,132.92l-131.36 0.07c0.42,-23.97 6.56,-53.65 12.54,-76.35 6.13,-23.27 18.12,-45.63 22.67,-65.71 -29.96,2.24 -40.29,41.07 -50.49,77.26 -5.01,17.82 -15.4,61.49 -16.55,80.47 -0.77,12.8 3.97,16.36 8.81,23.59l21.16 0.02zm540.91 183.67c15.35,-3.5 115.55,-4.57 126.8,0.65 20.52,-0.45 22.98,-10.01 29.56,-24.97 6.21,-14.15 9.64,-23.9 14.79,-39.6 9.65,-29.42 16.21,-58.61 16.21,-96.29 -10.31,21.62 -6.63,62.57 -37.63,120.56l-128.49 0.22c3.04,-26.44 28.79,-82.59 25.74,-138.22 -49.81,0 -18.63,34.13 -50.01,135.98 -8.53,27.68 -13.18,20.81 3.03,41.67zm-385.46 -504.02c-15.33,2.94 -28.61,15.99 -40.22,24.58 -13.72,10.18 -22.27,19.96 -34.4,32.08 -13.5,13.5 -19.32,19.56 -31.2,35.28 -12.75,16.87 -21.69,22.12 -7.34,40.33l123.91 0.62c18.82,-1.36 17.96,-16.28 38.07,-46.48 6.52,-9.78 10.37,-15.6 17.56,-24.73 20.52,-26.03 39.13,-43.01 64.56,-65.38 4.3,-3.78 7.11,-5.77 11.92,-9.25 20.94,-15.13 23.95,-17.52 9.92,-38.4 -27.19,13.09 -53.73,43.12 -72.76,66.31 -80.43,98.09 -7.57,79.07 -169.33,79.22 18.42,-38.81 76.17,-79.85 89.31,-94.18zm-93.55 504.67c9.02,-6.71 77.34,-2.5 95.23,-3.62 10.03,-18.55 1.63,-16.04 0,-35.66l-117.2 -1.05c-26.06,-42.65 -27.44,-86.6 -38.73,-137.97 -31.18,0.6 -33.14,13.01 -29,39.78 3.88,25.01 6.98,41.33 12.65,63 5.19,19.86 11.62,37.31 19.78,55.75 11.77,26.52 22.39,19.77 57.27,19.77zm113.31 -181.32l14.94 -3.17c41.26,-1.76 98.68,2.12 145.27,-0.35 3.28,-11.31 3.71,-3.27 5.66,-14.98 1.03,-6.08 0.39,-16.86 0.39,-23.45l-166.3 0.48c2.52,-26.9 4.84,-48.59 11,-74.73 5.72,-24.36 14.24,-43.28 20.02,-65.12 -28.1,0 -26.84,11.86 -34.86,32.33 -12.37,31.56 -22.05,76.47 -25.89,110.15 -3.58,31.36 0.41,38.84 29.77,38.84zm-12.02 135.98l0 3.03c0.42,0.61 0.94,0.88 1.1,1.91l15.14 33.21c8.8,10.68 29.46,7.19 47.71,7.19 15.86,-7.42 83.76,-1.4 108.28,-3.05 8.08,-15.22 6.05,-15.46 6.05,-37.61l-132.98 0.11c-17.36,-21.18 -31.01,-101.61 -32.54,-134.73 -27.57,0 -37.52,-7.2 -28.43,54.95l15.67 74.99zm215.9 45.34c6.87,-3.48 110.63,-3.77 117.74,0 18.63,-3.4 20.53,-13.41 26.4,-29.78 4.32,-12.03 8.61,-27.92 12.29,-42.1 5.33,-20.56 16.41,-70.12 11.44,-90.49 -3.86,9.7 -8.52,49.69 -12.48,65.34 -5.02,19.77 -10.68,38.24 -19.27,56.74l-137.12 -0.26 -0.07 -134.73 -21.45 0 -8.42 9.71 -0.64 156.5c12,8.03 11.14,9.07 31.58,9.07zm2470.47 -365.66c24.55,16.13 21.24,36.03 21.24,74.82 55.43,-0.62 67.15,-37.8 65.05,-92.98 -3.77,-98.28 -83.06,-73.17 -83.18,-73.08 -8.75,13.84 -3.22,70.79 -3.11,91.24zm-2323.74 18.14l0 6.03 3.02 3.03 0 3.02 3.02 6.04 0 3.02c3.05,3.3 3.01,-5.19 3.01,9.08 3.09,3.32 3.02,-5.29 3.02,9.06 2.3,3.61 0.48,-0.35 2.83,6.23l6.52 26.72c2.64,13.14 4.37,22.9 6.7,38.63 4.69,31.59 -6.16,55.34 34.77,55.34l4.58 -2.14c11.87,-3.21 49.06,-1.55 62.45,-1.55 21.41,0 50.37,3.3 69.51,-2.37 3.16,-13.55 3.02,-17.57 3.02,-34.76l-139.42 -0.51c-2.18,-50.59 -13.89,-100.45 -29.35,-143.01 -24.5,0 -25.13,1.91 -33.68,18.14zm-148.09 163.2l163.18 -0.21c13.61,-19.47 6.56,-16.19 6.05,-39.09l-167.86 -1.4 -0.82 -140.64c-19.31,0.41 -29.39,5.62 -30.83,24.11l0.05 108.86c-0.06,29.53 -3.46,29.63 9.07,48.35l21.16 0.02zm284.06 195.74c-36.1,35.25 -34.97,54.52 -105.32,97.85 -42.28,26.04 -92.1,46.01 -149.58,52.06 7.3,-9.71 24.89,-19.25 40.15,-34.56 29.85,-29.96 77.14,-76.93 91.58,-120.74 -39.01,0.8 -23.58,39.53 -98.18,114.08 -40.03,39.99 -33.1,27.92 -56.89,49 -11.68,10.34 -10.23,25.93 5.21,31.56 20.7,7.56 106.46,-25.18 122.95,-33.47 71.67,-36.03 100.52,-62.13 146.69,-122.25 9.86,-12.83 17.04,-21.53 3.39,-33.53zm-284.06 -542.53c14.33,4.87 23.74,15.57 35.44,24.21 13.78,10.2 17.69,18.11 29.43,28.02 12.48,10.55 43.06,49.84 50.6,67.89 3.29,6.18 13.68,27.26 18.17,32.58 11.1,13.17 23.49,9.73 45.77,9.73 13.39,-11.58 83.18,-0.52 104.65,-6.06 1.05,-12.68 3.79,-7.04 1.57,-16.93 -2.56,-11.35 -4.2,-3.48 -7.62,-16.28 -25.89,-6.2 -82.66,0.24 -114.83,-2.59 -9.31,-11.08 -17.67,-30.26 -26.31,-43.7 -21.33,-33.2 -67.13,-85.77 -100.6,-101.78 -11.2,-0.97 -19.76,-5.61 -30,0.11 -8.68,4.86 -10.12,15.62 -6.27,24.8zm2474.94 429.43c45.33,16.06 45.33,34.25 45.33,91.68 54.43,-5.42 71.16,-55.04 64.11,-114 -9.38,-78.37 -95.8,-70.71 -106.29,-60.15 -7.18,9.05 -8.81,70.04 -3.15,82.47zm-1290.56 -188.42c2.62,13.17 7.03,20.51 15.09,26.38 18.1,-4.32 24.5,-33.46 33.41,-56.66 11.02,-28.67 50.22,-114.31 38.78,-135.29 -5.59,-10.25 -16.83,-11.64 -26.38,-19.03 -11.38,-8.81 -11.63,-17.82 -18.38,-30.42 -26.46,3.86 -55.29,27.46 -61.54,60.05 -2.72,14.18 2.01,34.41 10.88,45.44 9.82,12.23 23.04,16.53 35.55,24.9 -11.15,47.86 -21.12,60.88 -27.41,84.63zm-1262.95 450.26l-6.04 -3.01c-95.14,-27.65 -123.8,-42.37 -185.3,-101.82 -24.46,-23.64 -35.4,-44.83 -44.37,-50.22l-24.17 1.07c-13.61,20.17 -9.28,22.69 5.56,42.64 50.62,68.1 117.34,116.51 201.17,140.31 14.18,4.03 76.28,25.63 69.45,-9.45 -2.7,-13.93 -9.04,-9.61 -16.3,-19.52zm899.51 -652.74c-9.93,30.84 -30.91,23.57 -20.36,60.66 6.36,22.39 16.57,47.37 24.41,66.26l3.03 6.05 0 3.02 3.02 3.02 0 3.02 3.02 6.04 0 3.02 3.02 6.05 0 3.03 3.03 3.01 0 6.04 3.01 3.03 0 6.04 3.03 3.03 0 6.04 3.03 3.02c9.49,38.33 27.29,56.79 42.07,14.9 3.77,-10.68 7.1,-19.82 11.31,-31.01 11.06,-29.42 18.34,-37.09 7.39,-68.79 -7.3,-21.12 -13.52,-45.96 -24.91,-62.75 -9.53,-14.06 -10.52,-11.21 -20.93,-21.46 -10.9,-10.72 -8.5,-20.05 -14.95,-30.8 -12.14,1.79 -19.06,5.5 -28.22,9.53zm970.17 389.82c13.04,0.97 11.87,1.71 15.11,13.01 2.5,8.74 2.91,13.92 4.07,23.09 2.43,18.97 4.73,28.3 11.92,42.83 21.99,5.63 62.13,9.3 84.61,2.66 9.37,-13.94 14.93,-19.51 23.23,-37.21 4.74,-10.1 11.89,-34.39 13.04,-46.43 -91.7,39.94 -51.46,-40.16 -80.67,-77.47 -11.03,-14.08 -56.55,-17.86 -66.8,1.8 -7.53,14.46 -7.48,62.18 -4.51,77.72zm-4.66 -262.9c25.46,0 68.02,-6.44 90.15,2.66 11.13,-12.02 13.1,-27.16 33.54,-29.5 19.07,-2.17 36.15,6.42 43.86,15.88 24.81,30.44 19.01,76.27 28.38,91.34 23.63,16.77 58.66,4.56 73.29,-10.1 15.97,-16.03 24.4,-45.58 26.42,-74.73 -87.48,19.89 -51.86,-62.41 -152.76,-81.47 -30.7,-5.78 -81.49,-6.53 -111.82,-0.53 -32.28,6.39 -30.36,38.55 -31.06,86.45zm-1423.8 1124.21c2.3,3.67 1.18,-0.01 2.4,6.65 0.71,3.93 0.72,7.24 0.78,11.26 0.12,9.09 -0.34,15.16 0.64,24.4 13.43,11.3 86.57,16.48 110.93,-45.41 13.69,-34.8 33.68,-161.34 -48.32,-181.06 -23.23,-5.59 -53.2,-6.15 -61.21,17.11 -10.31,29.87 -5.99,130.57 -5.22,167.05zm-2121.4 -642.36c-45.91,6.93 -87.31,10.32 -135.16,6.47 -46.11,-3.71 -84.74,-7.92 -85.46,-56.19 -5.83,8.44 -1.65,8.94 -19.05,17.21 -25.85,12.29 -47.87,25.43 -44.42,67.3 3.92,48.01 53.52,54.85 91.48,59.76 40.05,5.19 109.07,2.01 140.7,-5.79 51.13,-12.6 71.43,-47.26 51.91,-88.76zm194.06 654.46c5.22,9.43 8.16,18.54 8.49,33.17 0.16,7.7 0.12,12.75 0.76,20.41 1.05,12.49 0.24,4.9 -0.75,18.94 14.17,21.11 88.06,4.48 112.31,-53.83 17.28,-41.53 13.7,-116.66 -4.4,-156.97 -26.97,-60.1 -95.51,-73.34 -109,-40.95 -10.33,24.81 -8.84,146.12 -7.41,179.23zm-217.16 -800.87l1.95 6.03 18.13 45.89c34.72,19.99 52.63,25.84 34.31,78.02 17.37,28.36 46.98,105.49 89.68,94.01 23.13,-6.2 35.29,-28.08 46.21,-47.71 9.03,-16.25 25.44,-49.7 29.24,-68.37 -21.67,23.51 -34.26,54.17 -72.92,-4.78 -30.38,-46.32 -61.08,-126.74 -82.51,-180.35 -9.31,-23.26 -22.43,-84.3 -49.96,-74.59 -8.02,4.84 -4.93,-0.47 -9.64,12.33 -7.88,21.38 -5.76,119.46 -4.49,139.52zm1159.34 134.53c-57.35,20.41 -127.01,22.31 -191.99,18.54 -57.8,-3.36 -134.35,-11.78 -137.26,-71.48 -17.69,11.51 -41.46,25.52 -52.08,38.71 -15.73,19.54 -15.81,48.64 -2.46,70.09 44.28,71.13 312.27,67.5 365.03,14.48 10.74,-10.8 29.98,-47.29 18.76,-70.34zm-1353.81 -53.7c11.08,-11.05 6.44,-11.18 21.78,-19.88 32.79,-18.6 38.2,-7.8 45.38,-81.67 5.12,-52.67 14.9,-287.1 6.37,-328.23 -14.21,-68.45 -57.35,-41.31 -69.55,-98.3 -23.01,9.32 -38.29,13.37 -52.92,32.66 -13.43,17.73 -14.83,44.21 -3.5,65.1 25.14,46.4 64.98,23.82 64.59,104.63 -0.14,28.23 -0.17,56.48 -0.07,84.7 0.18,43.03 -6.47,121.64 -6.02,163.2 0.3,27.81 -6.06,52.33 -6.06,77.79zm2910.1 -132.21c2.16,3.12 0.21,-0.92 3.21,5.85l19.08 53.44c7.52,22.61 13.61,40.87 21.15,63.47 13.91,41.74 25.58,86.36 47.15,119.04 11.12,16.85 23.26,30.21 45.19,36.41 50.71,14.33 84.87,-18.23 105,-58.58 7.76,-15.59 21.83,-43.6 25.14,-60.79 -2.84,2.45 -1.97,1.82 -4.94,5.17 -10.26,11.56 -20.02,22.13 -36.55,27.05 -63.38,18.83 -88.58,-56.98 -103.45,-103.51l-53.58 -157.98c-8.55,-25.07 -9.25,-40.23 -25.18,-43.52 -11.48,8.41 -17.8,36.01 -24.03,53.6 -5.43,15.34 -17.29,44.65 -18.19,60.35zm541.29 -420.04c-8.21,44.99 -41.7,33.84 -65.42,58.9 -14.64,15.48 -34.03,61.3 -40.23,86.15 36.77,-27.57 60.97,-22.89 69.01,-57.42 8.6,6.3 4.93,7.7 14.98,15.24 6.22,4.7 13.77,8.35 21.3,11.95 21.34,10.23 22.92,13.19 26.75,39.71 7.21,49.89 10.02,255.74 2.64,313.06 -1.96,15.23 -7.94,43.58 -8.26,59.01 10.34,-11.03 9.8,-10.68 25.98,-20.12 12.9,-7.53 14.88,-8.2 23.66,-18.67 28.52,-34.01 27.19,-183.83 27.25,-227.93 0.11,-54.17 0.91,-111.89 -5.14,-165.24 -8.02,-70.55 -22.81,-52.99 -52.73,-74.38 -11.58,-8.26 -10.46,-13.1 -19.02,-24.12 -11.26,1.21 -12.4,1.78 -20.77,3.86zm-2965.76 417.02c9.34,-3.23 8.25,-3.63 10.06,8.72 0.77,5.31 2.41,21.23 2.32,24.23l-6.17 99.29c-8.15,41.01 -69.22,39.35 -50.85,103.65 16.07,56.29 101.99,60.32 154.32,60.26 60.03,-0.08 193,11.28 216.92,-52.04 4.74,-12.52 5.78,-36.25 0.65,-48.42 -57.93,11.85 -231.82,26.64 -286.77,-8.58 -20.86,-13.37 -34.33,-45.73 -13.94,-70.85 28.23,-34.78 51.31,4.75 49.37,-161.72 -0.18,-14.88 -0.89,-35.92 -11.7,-42.23 -31.4,-18.38 -58.21,67.68 -64.21,87.69zm362.98 -386.81c-6.82,21.75 -15.96,17.51 -34.32,34.56 -17.13,15.89 -20.37,44.21 -23.04,71.21 16.16,-4 13.92,-13.28 24.66,-21.15 1.58,19.09 22.26,33.58 38.34,40.21 52.07,21.47 43.89,25.37 82.95,74.21 6.12,7.65 10.75,14.26 16.84,22.43 6.99,9.37 11.86,14.72 18.59,23.72 70.48,94.21 58.17,52.57 57.94,220.29 -0.03,18.13 -3.13,21.76 -3.13,38.67 11.86,-10.03 13.03,-14.61 27.32,-23.55 11.23,-7.04 22.48,-10.76 29.88,-21.52 14.84,-21.54 11.52,-158.87 9.14,-190.11 -2.94,-38.83 -14.73,-45.94 -31.54,-68.03 -28.38,-37.29 -57.05,-75.49 -86.47,-113.04 -17.7,-22.6 -24.17,-34.18 -54.2,-45.5 -48.84,-18.43 -33.91,-22.46 -48.24,-49.5 -12.43,1.33 -13,1.49 -24.72,7.1zm3224.91 550.64c-19.24,15.14 -17.19,34.32 -58.5,27.49 -123.95,-20.49 -297.2,-12.76 -428.02,-12.76 -86.23,0 -120.68,7.87 -119.26,-57.69 -6.86,17.6 -11.51,19.23 -31.28,30.78 -18.57,10.87 -20.94,12.02 -29.68,33.79 -10.92,27.2 -3.5,66.23 41.04,77.63 45.6,11.68 365.45,-6.26 494.89,12.8 47.09,6.93 65.93,9.07 90.73,-25.85 11.17,-15.71 38.09,-64.45 40.08,-86.19zm-1232.94 6.97l-11.09 8.55c-9.78,7.56 -17.78,12.86 -31.38,14.06 -52.66,4.67 -74.71,-53.17 -90.91,-96.28 -22.68,-60.34 -44.63,-120.11 -67.62,-180.21 -16.37,-42.8 -82.95,-235.82 -108.87,-262.8 -27.23,-28.38 -53.72,-12.92 -57.74,-68.12 -3.92,3.38 -75.67,33.88 -63.01,92.02 11.59,53.18 54.96,31.14 77.55,85.79 15.6,37.74 30.2,77.61 45.73,117.43 24.84,63.61 117.24,318.81 137.11,352.46 10.69,18.12 21.68,31.17 41.19,40.4 21.74,10.27 45.92,10.18 66.63,-1.07 33.34,-18.09 60.58,-75.86 62.41,-102.23zm-1595.56 689.56c23.09,-7.92 25.73,-12.15 50.83,1.48 69.45,37.7 126.91,211.77 133.35,292.74 0.9,11.38 -0.04,23.89 0.6,35.69l0.12 13.5c-0.28,9.45 -0.9,7.56 0.92,17.14 22.79,17.11 71.17,2.08 97.9,-30.5 56.07,-68.39 3.7,-271.8 -33.3,-349.84 -28.35,-59.78 -70.77,-137.23 -140.01,-147.19 -108.14,-15.51 -122.69,133.63 -110.41,166.98zm2919.15 0c23.09,-7.92 25.75,-12.15 50.85,1.48 42.72,23.2 69.22,83.15 88.25,126.29 21.37,48.41 40.72,111.43 45.09,166.45 0.91,11.38 -0.05,23.89 0.61,35.69 0.05,0.87 0.42,6.77 0.42,6.92 0.05,7.5 -0.02,-3.51 -0.31,6.58 -0.26,9.45 -0.91,7.56 0.92,17.14 13.22,9.93 41.53,6.29 56.57,0.71 16.92,-6.29 31.23,-18.9 41.33,-31.21 21.3,-25.97 24.94,-80.68 23.58,-120.48 -2.69,-79.14 -26.97,-166.28 -56.89,-229.36 -28.34,-59.78 -70.74,-137.23 -140,-147.19 -108.12,-15.51 -122.69,133.63 -110.42,166.98zm-74.35 -1241.11l-1.18 48.34c11.42,13.17 9.07,17.32 23.08,25.26 27.78,15.76 38.99,8.77 43.66,31.89 5.79,28.59 3.24,242.93 2.88,272.36l-6.68 93.05c-3.52,33.19 -9.27,52.54 -36.17,63.56 -14.32,5.86 -18.8,8.26 -24.75,23.6 -16.3,42.06 3.93,77.49 56.99,87 30.19,5.43 338.86,1.6 397.29,1.62 73.19,0.01 112.3,-12.94 156.6,-42.85 29.27,-19.76 75.96,-80.69 79.11,-124.52 -9.83,8.24 -23.43,29.31 -49.16,45.63 -18.15,11.53 -39.8,20.56 -64.15,26.43 -56.35,13.6 -282.21,7.94 -355.09,7.94 -51.18,0 -180.69,16.69 -160.91,-61.46 9.25,-36.58 47.94,-9.76 61.07,-75.11 13.47,-67.06 11.82,-277.01 10.01,-353.24 -1.97,-82.6 -18.52,-59.18 -54.81,-82.01 -13.24,-8.33 -9.46,-14.26 -18.54,-25.86 -13.82,-0.63 -27.65,4.91 -36.41,11.01 -12.87,8.97 -15.13,14.18 -22.84,27.36zm-3615.39 1765.85c-10.34,3.99 -19.3,10.24 -32.9,14.54 -12.37,3.92 -25.78,6.39 -39.32,8.73 -29.78,5.17 -56.76,7.9 -87.88,8.58 -75.3,1.65 -281.82,10.25 -299.28,-84.44 -13.22,-71.75 69.02,-66.12 80.83,-109.3 21.82,-79.69 14.42,-278.91 14.42,-370.97 0,-44 5.85,-145.05 -12.96,-178.92 -26.17,-47.17 -94.77,-23.45 -97.28,-93.05 -59.34,13.69 -124.02,28.61 -121.1,120.95 1.94,60.95 38.95,77.49 83.8,97.59 21.32,9.57 23.04,10.61 25.03,38.44 2.47,34.56 2.74,367.89 -3.35,422.51 -1.71,15.35 -5.6,41.04 -5.6,57.85 -28.26,14.96 -61.41,36.6 -76.64,65.4 -17.94,33.93 -10.09,86.69 8.86,114.19 64.39,93.4 251.65,79.97 348.88,80.37 33.12,0.13 97.85,-11.27 125.67,-19.39 34.42,-10.03 65.42,-32.55 81.94,-60.09 17.47,-29.09 23.87,-84.38 6.88,-112.99zm2323.87 -644.66c-3.54,174.9 -132.77,166.73 -138.34,212.12 10.9,11.61 62.09,28.67 80.9,35.36 2.96,-10.52 19.03,-29.95 27.51,-74.94 6.08,-32.3 -1.04,-20.32 8.76,-27.5 0,89.89 122.7,166.28 227.38,73.26 12.85,-11.42 19.11,-20.72 30.25,-33.2l29.44 -37.03c0,34.32 1.84,231.45 -1.75,255.11 -5.65,37.34 -0.2,101.95 -19.57,158.72 -4.23,12.39 -0.48,9.36 -11.64,15.56l-35.58 15.77c-12.89,6.43 -20.53,11.28 -29.49,21.9 -28.49,33.82 -37.28,68.9 -19.1,115.44 29,74.23 131.8,94.09 210.56,100.71 83.78,7.04 288.31,10.43 363.37,-45.12 58.14,-43.01 54.86,-91.34 41.82,-148.7 -17.83,6.42 -28.4,13.68 -50.19,19.37 -102.45,26.75 -340.21,27.91 -417.44,-22.99 -23.63,-15.57 -51.89,-57.47 -24.43,-92.42 49.84,-63.4 106.29,49.2 115.24,-290.61 1.56,-59.48 8.22,-212.68 -4.45,-262.39 -14.27,-56.08 -52.29,-31.64 -71.82,-3.36l-41.51 58.24c-10.28,13.41 -37.64,38.27 -55.53,47.26 -16.01,8.07 -35.11,11.88 -55.64,7.26 -33.19,-7.46 -56.7,-37.01 -61.56,-74.11 -10.94,-83.53 40.03,-146.8 69.91,-198.98 -67.36,0 -134.17,109.04 -162.89,167.4l-4.21 7.87zm-1940.06 63.45c-13.06,118.82 -52.29,188.01 -131.91,233.76 -35.79,20.55 -89.11,39.06 -134.68,46.46 -84.25,13.68 -131.98,0.57 -170.5,4.7 -0.95,40.73 -7.68,144.44 23.06,162.1 82.33,2.3 191.68,-28.6 249.66,-67.43 13.9,-9.32 23.12,-17.09 36.17,-27.28 29.92,-23.39 45.87,-59.67 58.68,-68.25 0,74.99 23.16,152.62 48.33,202.48 18.25,36.14 46.92,84.27 74.85,115.53 19.87,22.22 40.37,44.41 64.15,62.78 53.53,41.37 57.3,43.42 116.85,73.53 83.33,42.14 227.25,58.25 324.84,41.74 147.66,-24.96 247.89,-77.92 343.08,-194.8l38.96 -57.74c29.5,-49.77 58.68,-137.57 58.68,-196.1 -8.88,12.57 -19.93,48.21 -49.29,90.59 -151.62,218.88 -455.81,261.86 -675.8,130.82 -180.76,-107.68 -277.32,-347.35 -195.73,-564.11 38.14,-101.38 99.29,-147.08 108.82,-164.05 -36.44,7.44 -120.18,87.65 -149.41,123.45l-38.81 51.82zm2904.03 8.23l-48.35 157.97 48.35 -157.97zm0 0c-9.87,5.52 -12.94,11.96 -27.25,18.96 -32.16,15.75 -71.37,10.66 -99.96,-8.73 -33.91,-23.01 -49.33,-59.91 -72.23,-100.09 -7.32,-12.87 -28.95,-43.38 -53.08,-25.85 -16.6,12.07 -16.4,44.03 -16.44,68.19 -0.08,56.53 -2.69,112.89 -2.5,169.24 10.35,7.76 10.71,16.89 39.59,38.46 89.93,67.17 183.43,-2.18 183.52,-2.21 0,36 -13.96,85.85 -5.29,153.37 12.48,97.05 47.34,188.69 107.62,264.08 44.4,55.52 28.73,33.31 64.66,68.3 74.48,72.51 173.52,110.91 276.76,128.17 150.64,25.18 311.43,-14.78 426.14,-100.61 78.62,-58.83 140,-138.98 171.6,-233.32 8.74,-26.12 22.22,-82.79 22.22,-114.71 -9.36,13.23 -14.48,32.29 -22.85,47.65 -138.2,253.57 -465.99,314.48 -702.25,173.76 -180.72,-107.66 -277.32,-347.31 -195.72,-564.11 12.23,-32.52 29.26,-64.04 46.76,-89.24 10.58,-15.23 19.97,-25.58 30.22,-39.26 10.54,-14.08 24.39,-22.31 31.84,-35.55 -10.27,2.09 -23.67,10.92 -32.39,16.86 -58.34,39.75 -108.21,89.83 -147.4,148.75 -3.85,5.79 -5.68,8.32 -9.69,14.48l-10.87 16.34 -3.01 -12.93z"/>
 </g>
</svg>
