<?xml version="1.0" encoding="UTF-8"?>
<!DOCTYPE svg PUBLIC "-//W3C//DTD SVG 1.1//EN" "http://www.w3.org/Graphics/SVG/1.1/DTD/svg11.dtd">
<!-- Creator: CorelDRAW -->
<svg xmlns="http://www.w3.org/2000/svg" xml:space="preserve" width="297mm" height="160mm" version="1.1" style="shape-rendering:geometricPrecision; text-rendering:geometricPrecision; image-rendering:optimizeQuality; fill-rule:evenodd; clip-rule:evenodd"
viewBox="0 0 29700 16000"
 xmlns:xlink="http://www.w3.org/1999/xlink"
 xmlns:xodm="http://www.corel.com/coreldraw/odm/2003">
 <defs>
  <style type="text/css">
   <![CDATA[
    .fil0 {fill:#FAF2DE}
    .fil1 {fill:#FAF2DE;fill-rule:nonzero}
   ]]>
  </style>
 </defs>
 <g id="Layer_x0020_1">
  <metadata id="CorelCorpID_0Corel-Layer"/>
  <path class="fil0" d="M2192.84 11773.99l17271.83 0c0,498.76 408.1,906.85 906.86,906.85l0 0.02c-498.76,0 -906.86,408.08 -906.86,906.84l-17271.83 0c0,-498.76 -408.11,-906.84 -906.86,-906.84l0 -0.02c498.75,0 906.86,-408.09 906.86,-906.85z"/>
  <path class="fil0" d="M7227.44 2525.65l20191.69 0c0,474.18 387.97,862.16 862.15,862.16l0 0.01c-474.18,0 -862.15,387.98 -862.15,862.16l-20191.69 0c0,-474.18 -387.97,-862.16 -862.15,-862.16l0 -0.01c474.18,0 862.15,-387.98 862.15,-862.16z"/>
  <path class="fil1" d="M2656.83 7090.76l0 506.89c592.67,41.59 1002.09,-19.5 1228.24,-183.26 226.15,-163.77 339.22,-414.61 339.22,-752.54 0,-587.47 -345.72,-881.2 -1037.17,-881.2 -103.98,0 -180.66,2.6 -230.05,7.79 -49.39,5.2 -97.48,23.4 -144.27,54.59 -46.79,31.2 -80.58,77.99 -101.38,140.37 -36.39,98.78 -54.59,467.9 -54.59,1107.36zm0 1278.92l-7.79 569.27c0,587.47 28.59,922.8 85.78,1005.98 31.19,41.59 90.98,80.59 179.36,116.98 5.2,5.2 22.09,12.99 50.69,23.39 28.59,10.4 48.09,19.5 58.48,27.3 10.4,7.79 28.6,19.49 54.59,35.09 26,15.6 45.49,31.19 58.49,46.79 13,15.59 25.99,33.79 38.99,54.59 13,20.79 23.4,45.49 31.19,74.08 7.8,28.59 11.7,58.49 11.7,89.68 0,166.36 -96.18,275.54 -288.53,327.53 -192.36,51.99 -514.69,77.98 -966.99,77.98 -155.97,0 -271.64,-1.3 -347.03,-3.9 -75.38,-2.6 -172.86,-6.5 -292.43,-11.7 -119.58,-5.19 -207.96,-16.89 -265.14,-35.09 -57.19,-18.19 -119.58,-41.59 -187.16,-70.18 -67.59,-28.6 -114.38,-66.29 -140.37,-113.08 -26,-46.79 -38.99,-103.97 -38.99,-171.56 0,-67.58 16.89,-124.77 50.68,-171.56 33.8,-46.79 67.59,-80.58 101.38,-101.38 33.8,-20.8 84.48,-46.79 152.07,-77.98 98.78,-51.99 158.56,-90.98 179.36,-116.98 77.98,-109.17 116.97,-850.01 116.97,-2222.51 0,-1091.76 -38.99,-1689.63 -116.97,-1793.61 -20.8,-31.19 -83.18,-72.78 -187.16,-124.77l-46.79 -15.6c-25.99,-10.39 -41.59,-18.19 -46.79,-23.39 -5.2,-5.2 -20.79,-14.3 -46.79,-27.29 -25.99,-13 -42.89,-23.4 -50.69,-31.2 -7.8,-7.8 -20.79,-20.79 -38.99,-38.99 -18.19,-18.2 -31.19,-36.39 -38.99,-54.59 -7.8,-18.19 -14.3,-40.29 -19.5,-66.28 -5.19,-26 -7.79,-54.59 -7.79,-85.78 0,-249.55 220.95,-374.32 662.85,-374.32 88.38,0 223.55,2.6 405.51,7.8 181.96,5.2 319.73,7.79 413.31,7.79 46.79,0 93.58,-1.29 140.37,-3.89 46.79,-2.6 109.18,-5.2 187.16,-7.8 77.98,-2.6 153.37,-3.9 226.15,-3.9 192.36,-5.2 375.62,-11.7 549.78,-19.5 174.16,-7.8 302.83,-11.69 386.01,-11.69 1284.12,0 1926.18,525.08 1926.18,1575.25 0,561.48 -183.26,999.48 -549.78,1314.01 -366.52,314.53 -882.5,471.8 -1547.96,471.8 -244.34,0 -522.48,-15.6 -834.42,-46.79z"/>
  <path id="_1" class="fil1" d="M8794.09 10935.32c-655.06,0 -1237.33,-181.96 -1746.82,-545.88 -426.3,-306.74 -735.64,-682.35 -927.99,-1126.86 -192.36,-444.5 -288.54,-908.5 -288.54,-1391.99 0,-691.45 187.16,-1281.52 561.48,-1770.21 265.14,-353.53 610.86,-625.17 1037.17,-814.93 426.31,-189.75 881.21,-284.63 1364.7,-284.63 691.45,0 1294.52,197.55 1809.2,592.67 363.92,280.74 643.36,640.76 838.32,1080.06 194.96,439.3 292.44,908.5 292.44,1407.59 0,660.26 -179.36,1232.13 -538.09,1715.63 -270.34,369.11 -616.06,651.15 -1037.17,846.11 -421.11,194.96 -876.01,292.44 -1364.7,292.44zm1419.29 -2401.88c0,-769.43 -187.16,-1432.28 -561.48,-1988.56 -343.12,-504.29 -727.84,-756.44 -1154.14,-756.44 -322.33,0 -595.27,139.07 -818.82,417.21 -223.56,278.14 -335.33,682.35 -335.33,1212.64 0,759.03 192.36,1424.48 577.07,1996.36 317.13,478.29 696.65,717.44 1138.55,717.44 332.73,0 608.27,-137.77 826.62,-413.31 218.35,-275.54 327.53,-670.65 327.53,-1185.34z"/>
  <path id="_2" class="fil1" d="M14128.12 8330.69l-7.79 865.61c0,415.91 28.59,665.45 85.78,748.63 15.59,26 75.38,64.99 179.36,116.98 62.38,31.19 109.17,55.89 140.37,74.08 31.19,18.2 64.98,51.99 101.38,101.38 36.39,49.39 54.58,107.88 54.58,175.46 0,67.59 -12.99,124.77 -38.99,171.56 -25.99,46.79 -71.48,84.48 -136.47,113.08 -64.98,28.59 -126.07,51.99 -183.26,70.18 -57.19,18.2 -141.67,29.9 -253.44,35.09 -111.78,5.2 -201.46,9.1 -269.04,11.7 -67.59,2.6 -171.57,3.9 -311.94,3.9 -10.39,0 -20.79,0 -31.19,0 -10.4,0 -20.79,0 -31.19,0 -545.88,0 -894.21,-31.19 -1044.97,-93.58 -150.77,-62.38 -226.15,-166.36 -226.15,-311.93 0,-67.58 16.89,-124.77 50.69,-171.56 33.79,-46.79 67.58,-80.58 101.37,-101.38 33.8,-20.8 84.49,-46.79 152.07,-77.98 103.98,-51.99 163.76,-90.98 179.36,-116.98 77.98,-93.58 116.98,-834.41 116.98,-2222.51 0,-1086.56 -39,-1684.43 -116.98,-1793.61 -20.79,-31.19 -85.78,-72.78 -194.96,-124.77 -98.77,-46.79 -171.56,-93.58 -218.35,-140.37 -46.79,-46.79 -70.18,-114.37 -70.18,-202.75 0,-249.55 220.95,-374.32 662.85,-374.32 83.18,0 210.56,2.6 382.12,7.8 171.56,5.2 298.93,7.79 382.11,7.79 103.98,0 306.74,-5.19 608.27,-15.59 181.96,-5.2 361.32,-11.7 538.08,-19.5 176.76,-7.8 309.34,-11.69 397.72,-11.69 317.13,0 596.56,33.79 838.31,101.37 241.75,67.59 430.21,152.07 565.38,253.45 135.17,101.38 244.34,223.55 327.53,366.52 83.18,142.97 137.77,276.84 163.76,401.61 25.99,124.77 38.99,254.74 38.99,389.91 0,353.53 -92.28,660.26 -276.84,920.2 -184.56,259.94 -425,426.31 -721.34,499.09 -57.19,31.2 -85.78,49.39 -85.78,54.59 0,25.99 20.79,44.19 62.39,54.59l70.18 23.39c41.59,15.6 67.59,26 77.98,31.2 10.4,5.2 35.1,15.59 74.09,31.19 38.99,15.6 68.88,29.89 89.68,42.89 20.79,13 48.09,29.89 81.88,50.69 33.79,20.79 64.99,44.19 93.58,70.18 28.59,26 58.49,54.59 89.68,85.78 109.18,119.58 200.16,272.94 272.94,460.1 51.99,129.98 102.68,306.74 152.07,530.29 49.39,223.55 100.07,382.11 152.06,475.69 51.99,93.58 161.17,161.17 327.53,202.76 228.75,57.19 343.13,158.56 343.13,304.13 0,31.2 -3.9,63.69 -11.7,97.48 -7.8,33.79 -31.19,75.38 -70.19,124.77 -38.99,49.39 -90.98,92.28 -155.96,128.68 -64.99,36.39 -161.17,67.58 -288.54,93.57 -127.37,26 -276.84,39 -448.4,39 -389.92,0 -686.25,-90.98 -889.01,-272.94 -181.96,-161.17 -340.52,-493.9 -475.69,-998.19l-70.19 -257.34c-119.57,-431.5 -267.74,-720.04 -444.5,-865.61 -176.76,-145.57 -470.5,-200.16 -881.21,-163.76zm0 -1466.08l0 662.85c114.38,10.4 249.55,15.6 405.52,15.6 753.83,0 1130.75,-291.14 1130.75,-873.41 0,-51.99 -2.6,-105.28 -7.8,-159.86 -5.2,-54.59 -27.29,-129.98 -66.29,-226.15 -38.99,-96.18 -90.98,-178.07 -155.96,-245.65 -64.99,-67.59 -163.77,-127.37 -296.34,-179.36 -132.57,-51.99 -289.83,-77.98 -471.79,-77.98 -285.94,0 -447.11,70.18 -483.5,210.55 -36.39,109.18 -54.59,400.31 -54.59,873.41z"/>
  <path id="_3" class="fil1" d="M18541.96 5094.4l3158.31 0c25.99,0 168.96,-13 428.9,-38.99 31.2,-5.2 59.79,-11.7 85.78,-19.5 26,-7.8 46.79,-14.3 62.39,-19.5 15.6,-5.2 31.19,-7.79 46.79,-7.79 129.97,0 249.55,152.06 358.72,456.2 109.18,304.13 163.77,643.35 163.77,1017.67 0,285.94 -93.58,428.91 -280.74,428.91 -145.57,0 -265.14,-80.58 -358.72,-241.75 -15.6,-20.79 -49.39,-83.18 -101.38,-187.16l-62.39 -116.97c-119.57,-223.55 -224.85,-366.52 -315.83,-428.91 -90.98,-62.38 -243.05,-93.58 -456.2,-93.58 -197.56,0 -322.33,28.6 -374.32,85.78 -36.39,41.59 -62.38,114.38 -77.98,218.36 -25.99,218.35 -38.99,673.25 -38.99,1364.7 0,1408.89 31.19,2204.31 93.58,2386.27 25.99,62.39 98.78,122.18 218.35,179.36 135.17,57.19 218.35,119.58 249.55,187.16 20.79,41.59 31.19,90.98 31.19,148.17 0,150.77 -79.28,256.04 -237.85,315.83 -158.56,59.79 -497.79,89.68 -1017.68,89.68 -452.3,0 -774.63,-25.99 -966.98,-77.98 -192.36,-51.99 -288.54,-161.17 -288.54,-327.53 0,-67.58 16.9,-124.77 50.69,-171.56 33.79,-46.79 67.58,-80.58 101.38,-101.38 33.79,-20.8 84.48,-46.79 152.06,-77.98 103.98,-51.99 163.77,-90.98 179.36,-116.98 77.99,-119.57 116.98,-930.59 116.98,-2433.06 0,-764.24 -13,-1216.54 -38.99,-1356.91 -15.6,-119.57 -44.19,-197.55 -85.78,-233.94 -57.19,-51.99 -179.36,-77.99 -366.52,-77.99 -67.59,0 -131.28,5.2 -191.06,15.6 -59.79,10.4 -109.18,19.49 -148.17,27.29 -38.99,7.8 -77.98,26 -116.97,54.59 -39,28.59 -68.89,50.69 -89.68,66.29 -20.8,15.59 -45.49,44.19 -74.09,85.78 -28.59,41.59 -48.09,70.18 -58.49,85.78 -10.39,15.6 -29.89,50.69 -58.48,105.28 -28.6,54.58 -45.49,87.08 -50.69,97.47l-62.39 116.98c-10.4,15.6 -25.99,44.19 -46.79,85.78 -20.79,41.59 -36.39,70.18 -46.79,85.78 -10.39,15.6 -24.69,40.29 -42.89,74.08 -18.19,33.8 -36.39,57.19 -54.59,70.19 -18.19,13 -40.29,28.59 -66.28,46.79 -26,18.2 -54.59,31.19 -85.78,38.99 -31.2,7.8 -64.99,11.7 -101.38,11.7 -187.16,0 -280.74,-137.77 -280.74,-413.31 0,-363.92 57.19,-703.15 171.56,-1017.68 114.38,-314.53 231.35,-471.79 350.93,-471.79 10.39,0 20.79,1.3 31.19,3.89 10.4,2.6 28.59,7.8 54.59,15.6 25.99,7.8 51.99,14.3 77.98,19.5 150.77,31.19 304.13,46.79 460.1,46.79z"/>
  <path id="_4" class="fil1" d="M26067.31 10935.32c-655.06,0 -1237.33,-181.96 -1746.82,-545.88 -426.3,-306.74 -735.64,-682.35 -927.99,-1126.86 -192.36,-444.5 -288.54,-908.5 -288.54,-1391.99 0,-691.45 187.16,-1281.52 561.48,-1770.21 265.14,-353.53 610.86,-625.17 1037.17,-814.93 426.31,-189.75 881.21,-284.63 1364.7,-284.63 691.45,0 1294.52,197.55 1809.2,592.67 363.92,280.74 643.36,640.76 838.32,1080.06 194.96,439.3 292.44,908.5 292.44,1407.59 0,660.26 -179.36,1232.13 -538.09,1715.63 -270.34,369.11 -616.06,651.15 -1037.17,846.11 -421.11,194.96 -876.01,292.44 -1364.7,292.44zm1419.29 -2401.88c0,-769.43 -187.16,-1432.28 -561.48,-1988.56 -343.12,-504.29 -727.84,-756.44 -1154.14,-756.44 -322.33,0 -595.27,139.07 -818.82,417.21 -223.56,278.14 -335.33,682.35 -335.33,1212.64 0,759.03 192.36,1424.48 577.07,1996.36 317.13,478.29 696.65,717.44 1138.55,717.44 332.73,0 608.27,-137.77 826.62,-413.31 218.35,-275.54 327.53,-670.65 327.53,-1185.34z"/>
  <path class="fil1" d="M2108.59 2531.1l0 95.28c0,28.68 6.15,43.03 18.44,43.03 16.39,0 38.93,-18.45 67.62,-55.33 47.13,-59.42 101.42,-106.55 162.9,-141.38 73.76,-38.93 154.7,-58.4 242.8,-58.4 143.43,0 267.4,48.15 371.9,144.46 28.69,26.64 51.22,49.17 67.62,67.62 16.39,18.44 25.61,31.24 27.66,38.41 2.05,7.18 4.61,12.3 7.68,15.37 3.08,3.08 8.71,4.61 16.91,4.61l12.29 0c4.1,-2.05 21.52,-16.39 52.25,-43.03 2.05,-2.05 12.81,-13.32 32.27,-33.81 19.47,-20.49 39.96,-38.93 61.47,-55.32 21.52,-16.39 47.64,-33.81 78.38,-52.25 94.25,-57.37 191.58,-86.06 291.98,-86.06 165.97,0 299.16,59.42 399.56,178.27 55.32,65.57 90.67,141.89 106.04,228.97 15.36,87.09 23.05,198.25 23.05,333.48l0 236.66c0,104.5 1.02,167 3.07,187.49l9.22 92.2c0,20.49 5.12,37.91 15.37,52.25 8.2,10.25 27.66,23.57 58.4,39.96 67.61,28.68 101.42,68.64 101.42,119.87 0,34.83 -12.8,63 -38.42,84.52 -25.61,21.51 -63.52,36.37 -113.72,44.56 -50.2,8.2 -91.69,12.81 -124.47,13.83 -32.79,1.03 -77.87,1.54 -135.24,1.54 -14.34,0 -24.59,0 -30.73,0 -168.02,0 -283.79,-9.73 -347.31,-29.2 -63.52,-19.46 -95.28,-57.88 -95.28,-115.25 0,-20.49 4.61,-37.91 13.83,-52.25 9.22,-14.35 19.46,-25.62 30.73,-33.81 11.27,-8.2 28.18,-18.44 50.72,-30.74l52.25 -27.66c26.63,-14.34 39.95,-91.18 39.95,-230.51l0 -209c0,-180.32 -15.88,-307.87 -47.64,-382.66 -31.76,-74.79 -89.64,-112.18 -173.65,-112.18 -192.61,0 -288.91,173.14 -288.91,519.43 0,237.68 10.24,370.87 30.73,399.55 18.45,18.44 37.91,31.76 58.4,39.96 67.62,28.68 101.43,68.64 101.43,119.87 0,34.83 -12.81,63 -38.42,84.52 -25.61,21.51 -64.03,36.37 -115.26,44.56 -51.22,8.2 -93.23,12.81 -126.01,13.83 -32.79,1.03 -77.87,1.54 -135.24,1.54 -14.34,0 -24.59,0 -30.73,0 -155.73,0 -268.42,-9.22 -338.09,-27.66 -69.67,-18.44 -104.5,-57.37 -104.5,-116.79 0,-14.35 1.54,-27.15 4.61,-38.42 3.07,-11.27 9.22,-21.52 18.44,-30.74 9.22,-9.22 16.39,-15.37 21.52,-18.44 5.12,-3.07 14.34,-8.71 27.66,-16.9 13.32,-8.2 21,-12.3 23.05,-12.3l49.18 -27.66c28.68,-16.39 43.02,-93.23 43.02,-230.51l0 -209c0,-75.82 -2.04,-136.77 -6.14,-182.88 -4.1,-46.1 -12.81,-96.3 -26.13,-150.6 -13.32,-54.3 -36.37,-94.77 -69.15,-121.4 -32.79,-26.64 -74.79,-39.96 -126.02,-39.96 -61.47,0 -112.18,16.39 -152.14,49.18 -39.95,32.78 -68.64,79.4 -86.05,139.84 -17.42,60.45 -29.2,117.82 -35.35,172.12 -6.15,54.3 -9.22,117.3 -9.22,189.02 0,219.24 10.25,342.19 30.74,368.82 8.19,10.25 27.66,23.57 58.39,39.96 65.57,32.78 98.35,72.74 98.35,119.87 0,34.83 -12.8,63 -38.41,84.52 -25.62,21.51 -63.52,36.37 -113.72,44.56 -50.21,8.2 -91.7,12.81 -124.48,13.83 -32.79,1.03 -77.86,1.54 -135.24,1.54 -6.14,0 -11.78,0 -16.9,0 -5.12,0 -9.73,0 -13.83,0 -168.02,0 -284.3,-9.73 -348.85,-29.2 -64.54,-19.46 -96.81,-57.88 -96.81,-115.25 0,-20.49 4.61,-37.91 13.83,-52.25 9.22,-14.35 19.46,-25.62 30.73,-33.81 11.27,-8.2 28.18,-18.44 50.72,-30.74l52.25 -27.66c28.68,-30.73 43.03,-127.04 43.03,-288.91l0 -141.38c0,-180.32 -4.1,-302.23 -12.3,-365.75 -8.19,-63.52 -22.54,-105.53 -43.03,-126.02 -4.1,-4.09 -23.56,-11.27 -58.39,-21.51 -40.98,-12.29 -70.18,-25.61 -87.6,-39.96 -17.42,-14.34 -26.12,-36.88 -26.12,-67.61 0,-49.18 40.98,-92.21 122.94,-129.09 213.09,-92.21 383.16,-138.31 510.2,-138.31 24.59,0 43.03,1.54 55.32,4.61 12.3,3.07 23.57,13.32 33.81,30.74 10.25,17.41 15.37,42.51 15.37,75.3z"/>
  <path id="_1_33" class="fil1" d="M4596.09 2859.96l-15.37 -30.73c-16.39,-34.83 -34.83,-62.5 -55.32,-82.99 -22.54,-20.49 -47.13,-33.81 -73.77,-39.95 -79.91,-20.49 -119.86,-60.45 -119.86,-119.87 0,-63.52 37.39,-105.01 112.18,-124.48 74.79,-19.46 196.19,-29.2 364.21,-29.2 6.15,0 15.37,0 27.66,0 53.28,0 95.8,1.03 127.56,3.08 31.76,2.05 71.2,6.66 118.33,13.83 47.12,7.17 82.47,21.51 106.03,43.03 23.57,21.51 35.35,49.69 35.35,84.52 0,30.73 -23.57,61.47 -70.69,92.21 -2.05,2.04 -7.69,5.63 -16.91,10.75 -9.22,5.13 -15.36,9.22 -18.44,12.3 -3.07,3.07 -6.66,7.68 -10.76,13.83 -4.09,6.14 -6.14,13.32 -6.14,21.51 0,6.15 3.07,19.47 9.22,39.96 4.1,16.39 34.83,89.13 92.2,218.22l92.21 209c55.32,122.94 92.2,184.41 110.13,184.41 10.25,0 26.64,-29.71 48.67,-89.13l69.66 -188c74.28,-196.19 111.68,-307.86 111.68,-334.5 0,-36.88 -19.47,-61.47 -58.4,-73.77 -63.52,-26.63 -95.28,-65.57 -95.28,-116.79 0,-43.03 20.49,-75.81 61.47,-98.35 40.98,-22.54 82.47,-35.35 124.48,-38.42 42,-3.08 99.89,-4.61 173.65,-4.61 221.29,0 331.94,47.13 331.94,141.38 0,8.2 -1.02,16.39 -3.07,24.59 -2.05,8.19 -4.1,14.85 -6.15,19.98 -2.05,5.12 -6.15,10.75 -12.29,16.9 -6.15,6.15 -10.76,10.76 -13.83,13.83 -3.08,3.07 -9.74,7.17 -19.98,12.29 -10.25,5.13 -17.42,8.71 -21.52,10.76 -4.09,2.05 -12.8,6.15 -27.15,12.3 -14.34,6.14 -23.56,10.24 -27.66,12.29 -43.03,18.44 -74.79,38.93 -95.28,61.98 -20.49,22.54 -43.54,62.5 -70.18,119.87 -47.12,106.04 -116.79,277.13 -208.99,512.25 -163.93,412.37 -261.25,651.59 -291.99,717.16 -161.87,360.11 -375.99,540.43 -642.36,540.43 -106.55,0 -186.98,-28.18 -241.28,-84.53 -54.3,-56.34 -81.44,-123.45 -81.44,-201.31 0,-69.67 21.51,-124.99 64.54,-165.97 43.03,-40.98 93.23,-61.47 150.6,-61.47 81.96,0 142.41,28.68 181.34,86.06l21.51 30.73c2.05,2.05 5.64,7.17 10.76,15.37 5.12,8.2 9.22,14.34 12.3,18.44 3.07,4.1 7.68,8.71 13.83,13.83 6.14,5.12 13.32,9.22 21.51,12.3 8.2,3.07 17.42,4.61 27.66,4.61 47.13,0 87.6,-22.54 121.41,-67.62 33.81,-45.08 50.71,-109.62 50.71,-193.63 0,-102.45 -40.98,-239.74 -122.94,-411.86 -26.64,-57.37 -64.54,-140.35 -113.72,-248.95 -49.18,-108.6 -78.89,-174.17 -89.13,-196.71l-55.33 -122.94 -107.57 -218.22z"/>
  <path class="fil1" d="M22411.38 12352.45l-15.37 -33.81c-28.69,-61.47 -66.59,-101.43 -113.72,-119.87 -32.79,-10.24 -58.4,-20.49 -76.84,-30.73 -34.83,-20.49 -52.25,-51.23 -52.25,-92.21 0,-53.27 30.22,-92.21 90.67,-116.79 60.45,-24.59 183.9,-36.89 370.36,-36.89 53.27,0 97.33,1.03 132.16,3.08 34.83,2.05 75.3,7.17 121.4,15.37 46.11,8.19 81.45,23.05 106.04,44.56 24.59,21.52 36.88,48.67 36.88,81.45 0,28.69 -22.54,59.42 -67.61,92.21 -32.79,24.58 -49.18,44.05 -49.18,58.39 0,32.79 39.96,138.31 119.87,316.57l39.95 89.14c71.72,161.87 114.75,242.8 129.09,242.8 10.25,0 45.08,-59.42 104.5,-178.26l115.26 -249.47c43.54,-98.35 65.57,-160.33 65.57,-186.97 0,-22.54 -19.98,-46.1 -59.43,-70.69 -55.32,-34.83 -82.98,-72.74 -82.98,-113.72 0,-96.3 116.79,-144.46 349.87,-144.46 211.56,0 317.08,48.16 317.08,144.46 0,28.69 -7.17,50.2 -21.51,64.54 -14.34,14.35 -44.06,31.76 -89.13,52.25l-33.81 15.37c-24.59,12.3 -47.13,30.22 -67.62,53.79 -20.49,23.56 -35.86,44.56 -46.1,61.98 -10.25,17.42 -23.57,43.54 -39.96,78.38l-266.37 571.16c-3.59,7.68 -14.86,32.27 -34.83,75.3 -19.98,42.52 -35.86,76.84 -48.16,102.96 -12.29,26.13 -28.68,61.98 -50.2,107.06 -21,45.59 -40.98,82.99 -59.42,111.16 -18.44,28.69 -38.93,57.89 -61.47,87.6 -22.54,29.71 -45.08,52.25 -66.59,67.61 -21.52,15.37 -42.52,23.06 -63.01,23.06 -47.13,0 -98.86,-49.18 -154.19,-147.53 -55.83,-98.36 -140.87,-276.11 -256.12,-532.23l-86.06 -194.15 -128.06 275.59c-31.76,68.65 -54.3,117.82 -68.13,147.53 -13.84,29.71 -34.33,73.26 -60.96,130.63 -26.64,57.37 -49.18,100.91 -67.62,129.6 -18.44,28.68 -39.44,60.44 -63.01,95.28 -23.56,34.83 -45.59,59.42 -66.59,73.76 -20.49,14.34 -39.96,21.52 -58.4,21.52 -20.49,0 -41.49,-8.71 -63,-26.13 -21.52,-17.42 -44.57,-44.05 -69.16,-79.91 -24.59,-35.35 -47.13,-70.69 -68.13,-105.52 -20.49,-34.84 -43.54,-81.97 -69.15,-140.87 -26.13,-58.91 -46.62,-105.53 -61.99,-140.36 -14.85,-34.84 -36.88,-84.52 -65.05,-149.07 -28.18,-64.54 -47.13,-108.08 -57.37,-130.62l-178.27 -407.76c-34.83,-84.01 -79.91,-137.28 -135.23,-159.82 -8.2,-4.1 -20.49,-9.22 -36.88,-15.37 -16.4,-6.14 -28.69,-11.27 -36.89,-15.36 -34.83,-20.49 -52.25,-51.23 -52.25,-92.21 0,-59.42 31.76,-99.89 95.28,-121.4 63.52,-21.52 184.41,-32.28 362.17,-32.28 52.76,0 96.81,1.03 131.64,3.08 34.33,2.05 75.31,7.17 122.43,15.37 47.13,8.19 81.96,23.05 105.53,44.56 23.56,21.52 35.34,48.67 35.34,81.45 0,28.69 -22.54,59.42 -67.61,92.21 -32.28,24.58 -48.67,44.05 -48.67,58.39 0,24.59 40.47,130.63 122.43,317.6l36.37 82.98c76.84,167.51 122.43,251.01 136.77,251.01 12.3,0 42.52,-51.23 90.16,-153.68l141.38 -304.28c2.05,-6.14 4.61,-11.78 7.68,-16.9 3.08,-5.12 5.13,-8.71 6.15,-10.76 1.03,-2.05 1.54,-4.1 1.54,-6.14 0,-4.1 -3.08,-12.3 -9.22,-24.59z"/>
  <path id="_1_34" class="fil1" d="M24639.67 12518.42l396.49 0c38.93,0 58.4,-16.4 58.4,-49.18 0,-110.65 -27.67,-191.58 -82.99,-242.81 -55.32,-51.22 -114.74,-76.84 -178.26,-76.84 -69.67,0 -129.09,31.76 -178.27,95.28 -49.17,63.52 -73.76,136.26 -73.76,218.22 0,10.25 1.02,18.96 3.07,26.13 2.05,7.17 3.59,12.8 4.61,16.9 1.03,4.1 4.61,7.17 10.76,9.22 6.15,2.05 9.73,3.08 10.76,3.08 1.02,0 5.63,0 13.83,0l15.36 0zm783.75 224.36l-753.01 0c-34.83,0 -56.86,2.05 -66.08,6.15 -9.22,4.1 -13.83,19.47 -13.83,46.1 0,102.45 39.44,193.12 118.33,272.01 78.89,78.89 174.68,118.33 287.37,118.33 92.21,0 194.66,-29.71 307.36,-89.13 57.37,-28.69 98.35,-43.03 122.94,-43.03 26.63,0 50.2,8.71 70.69,26.12 20.49,17.42 30.73,42.52 30.73,75.31 0,63.52 -45.08,132.16 -135.23,205.92 -147.53,120.89 -329.89,181.34 -547.09,181.34 -239.73,0 -434.9,-75.3 -585.5,-225.9 -150.61,-150.61 -225.91,-345.78 -225.91,-585.51 0,-243.83 76.84,-444.12 230.52,-600.87 153.67,-156.75 351.4,-235.13 593.18,-235.13 225.4,0 400.59,64.03 525.58,192.1 124.99,128.06 187.48,279.18 187.48,453.34 0,49.18 -3.07,88.11 -9.22,116.8 -6.15,28.68 -17.42,49.17 -33.81,61.47 -16.39,12.29 -31.25,19.46 -44.56,21.51 -13.32,2.05 -33.3,3.07 -59.94,3.07z"/>
  <path id="_2_35" class="fil1" d="M26327.03 11759.26l0 215.14c0,49.18 7.17,73.77 21.52,73.77 2.05,0 6.66,-2.05 13.83,-6.15 7.17,-4.1 22.54,-12.8 46.1,-26.12 23.56,-13.32 50.71,-27.15 81.45,-41.5 104.5,-49.17 211.05,-73.76 319.65,-73.76 194.65,0 352.43,70.18 473.32,210.54 120.89,140.35 181.34,314.01 181.34,520.96 0,202.85 -61.48,388.29 -184.42,556.3 -174.16,231.54 -404.68,347.31 -691.54,347.31 -200.8,0 -379.07,-59.42 -534.79,-178.26 -86.06,67.62 -159.82,101.42 -221.29,101.42 -28.69,0 -49.69,-7.17 -63.01,-21.51 -13.32,-14.34 -19.98,-30.74 -19.98,-49.18 0,-16.39 6.66,-40.98 19.98,-73.76 13.32,-32.79 22.03,-63.52 26.12,-92.21 16.4,-147.53 24.59,-420.04 24.59,-817.55l0 -350.38c0,-260.23 -17.41,-405.71 -52.25,-436.44 -4.1,-4.1 -23.56,-11.27 -58.39,-21.52 -75.82,-16.39 -113.73,-50.2 -113.73,-101.43 0,-51.22 40.99,-95.27 122.95,-132.16 213.09,-94.25 382.14,-141.38 507.13,-141.38 47.12,0 77.86,8.2 92.2,24.59 14.35,16.39 20.49,50.2 18.44,101.43l-9.22 411.85zm0 749.94l0 335.01c0,43.03 2.05,79.91 6.15,110.65 4.1,30.73 12.81,65.57 26.12,104.5 13.32,38.93 37.4,68.64 72.23,89.13 34.84,20.49 78.89,30.73 132.16,30.73 98.36,0 179.29,-38.93 242.81,-116.79 63.52,-77.86 95.28,-193.63 95.28,-347.31 0,-157.77 -31.76,-278.66 -95.28,-362.67 -63.52,-84.01 -146.5,-126.02 -248.95,-126.02 -153.68,0 -230.52,94.26 -230.52,282.77z"/>
 </g>
</svg>
